<?xml version="1.0" encoding="UTF-8"?>
<!DOCTYPE svg PUBLIC "-//W3C//DTD SVG 1.1//EN" "http://www.w3.org/Graphics/SVG/1.1/DTD/svg11.dtd">
<!-- Creator: CorelDRAW 2017 -->
<svg xmlns="http://www.w3.org/2000/svg" xml:space="preserve" width="210mm" height="297mm" version="1.1" style="shape-rendering:geometricPrecision; text-rendering:geometricPrecision; image-rendering:optimizeQuality; fill-rule:evenodd; clip-rule:evenodd"
viewBox="0 0 21000 29700"
 xmlns:xlink="http://www.w3.org/1999/xlink"
 enable-background="new 0 0 225.938 407.407">
 <defs>
  <style type="text/css">
   <![CDATA[
    .str2 {stroke:black;stroke-width:100;stroke-miterlimit:22.9256}
    .str3 {stroke:black;stroke-width:300;stroke-miterlimit:22.9256}
    .str1 {stroke:black;stroke-width:26.46;stroke-miterlimit:22.9256}
    .str0 {stroke:black;stroke-width:20;stroke-miterlimit:22.9256}
    .fil2 {fill:none}
    .fil6 {fill:none;fill-rule:nonzero}
    .fil0 {fill:black}
    .fil3 {fill:black}
    .fil7 {fill:#ED671C}
    .fil1 {fill:white}
    .fil5 {fill:black;fill-rule:nonzero}
    .fil4 {fill:url(#id0)}
   ]]>
  </style>
  <radialGradient id="id0" gradientUnits="userSpaceOnUse" gradientTransform="matrix(1.51734 -0 -0 1.42166 -4662 -4121)" cx="9010.68" cy="9774.04" r="924.09" fx="9010.68" fy="9774.04">
   <stop offset="0" style="stop-opacity:1; stop-color:white"/>
   <stop offset="0.0588235" style="stop-opacity:1; stop-color:#FBC2B2"/>
   <stop offset="0.0705882" style="stop-opacity:1; stop-color:#FBBCAE"/>
   <stop offset="0.180392" style="stop-opacity:1; stop-color:#F78F89"/>
   <stop offset="0.301961" style="stop-opacity:1; stop-color:#F4696C"/>
   <stop offset="0.419608" style="stop-opacity:1; stop-color:#F14F59"/>
   <stop offset="0.54902" style="stop-opacity:1; stop-color:#EF3847"/>
   <stop offset="0.678431" style="stop-opacity:1; stop-color:#EE273B"/>
   <stop offset="0.819608" style="stop-opacity:1; stop-color:#ED1D33"/>
   <stop offset="1" style="stop-opacity:1; stop-color:#ED1A30"/>
  </radialGradient>
 </defs>
 <g id="Warstwa_x0020_1">
  <metadata id="CorelCorpID_0Corel-Layer"/>
  <path class="fil0" d="M7261.02 9680.2c-32.66,23.7 -171.27,-88.37 -174.5,-48.23 -107.17,1338.18 -336.34,2565.64 -510.75,3329.44 -532.78,2337.19 -1065.54,5308.24 -1189.98,7808.74 -54.44,1065.54 108.89,1485.53 805,1485.53 1228.86,0 2788.29,-2589.95 4744.35,-2531.63 1959.97,58.34 2582.18,2971.06 3499.94,2951.62 917.76,-19.45 1656.64,-338.34 1664.41,-3173.27 15.03,-4674.59 -2160.73,-8844.62 -4444.74,-11850.34 -22.19,-29.19 -135.85,363.83 -172.37,364.2 -2233.45,22.7 -2296.53,267.48 -4221.36,1663.94z"/>
  <path class="fil0" d="M13112.88 9784.23c431.67,727.22 1532.2,167.23 1578.86,-653.32 46.67,-820.55 -73.9,-1854.98 -606.65,-1893.86 -532.78,-38.89 -913.89,-571.67 -1446.64,-610.56 -532.78,-38.89 -1104.43,493.89 -1353.31,-213.89 -248.89,-707.79 668.88,-1007.22 1353.31,-1119.98 -610.56,-610.56 -968.33,-1287.21 -1236.65,-1991.08 -268.34,-703.88 -466.66,-1349.43 283.9,-1625.52 750.55,-276.12 688.33,1143.31 1547.75,1792.75 -252.79,-956.65 -346.12,-1353.31 -326.66,-1909.42 19.45,-556.11 -19.46,-979.98 769.98,-871.09 789.44,108.88 447.23,1749.96 1061.66,2418.84 186.66,-633.89 299.45,-1438.86 750.55,-1769.42 451.1,-330.56 1477.75,-338.34 824.43,1018.87 -653.32,1357.21 190.56,2092.18 -7.78,3161.62 -198.34,1069.43 -812.77,874.99 -1077.21,1563.3 -264.44,688.33 155.55,2255.52 -342.22,2959.4 -497.76,703.89 -587.22,1784.98 -264.44,2648.3 -991.67,-925.52 -1508.88,-2904.94 -1508.88,-2904.94l0 0 0 0 0 0z"/>
  <path class="fil0" d="M6997.93 10676.35c-400.56,2745.55 -1857.14,3093.93 -1927.14,4233.36 -70,1139.44 369.45,1248.32 342.21,2302.18 -27.23,1053.88 -964.42,1481.65 -1077.21,2053.3 -112.79,571.65 482.21,754.43 828.33,754.43 346.11,0 692.21,-1516.64 832.21,-2481.07 139.99,-964.42 -458.88,-1532.19 -458.88,-2193.29 0,-661.1 867.21,-1870.53 707.76,-808.87 341.64,-539.23 718.99,-3837.58 752.72,-3860.04z"/>
  <path class="fil1" d="M7470.26 11744.15c-303.33,1485.53 -2197.19,9780.39 -1232.77,9885.38 964.43,105.01 2337.19,-2566.62 4584.93,-2547.19 2251.64,19.46 3138.29,2994.39 3686.6,2974.96 548.33,-19.46 909.98,194.44 968.33,-3157.72 58.34,-3352.16 -1987.2,-7633.76 -3196.61,-9519.83 -1641.15,104.99 -3406.67,1419.47 -4810.48,2364.4l0 0 0 0 0 0z"/>
  <path class="fil2" d="M11838.15 9970.85c-105.32,-985.76 -1032.69,-1373.02 -1926.1,-1251.34 -750.17,102.25 -1750.13,735.26 -1842.16,1546.89 -103.76,914.78 615.84,1756.57 1531.81,1793.35 811.79,32.62 1683.87,-360.14 2048.64,-1122.9 147.47,-308.08 205.1,-625.35 187.81,-966"/>
  <path class="fil3" d="M12265.92 9935.84c-89.76,-928.72 -778.15,-1511.67 -1668.68,-1654.2 -860.08,-137.67 -1796.41,269.95 -2398.54,872.07 -677.18,677.19 -704.25,1619.16 -230.08,2421.5 467.8,791.65 1504.06,1053.27 2352.89,855.28 1161.58,-270.9 2019.92,-1286.79 1944.41,-2494.65z"/>
  <path class="fil0 str0" d="M7102.74 12020.46c1028.08,-862.12 1504.18,-1157.2 2714.86,-2052.64 6.28,-4.64 1966.98,-388.85 2305.35,-601.38 175.04,-109.95 460.35,316.72 646.09,288.73 400.41,1144.62 267.96,1152.24 345.94,2044.97 108.2,1238.63 18.89,1722.34 -74.49,1482.04 -409.55,-1053.73 -157.72,1643.22 -170.91,1780.12 -9.98,103.23 -232.31,-340.41 -456.38,-561.39 -145,-143.05 47.25,1095.9 -191.15,1349.41 -98.21,104.41 -255.9,-354.78 -304.7,-254.5 -296.58,609.88 -122.46,811.3 -325.43,434.36 -122.12,-226.82 -293.72,1129.06 -294.07,1134.11 -55.49,830.27 -255.77,-759.1 -432.85,-354.38 -199.3,455.52 -57.67,648.21 -355.53,65.07 -678.7,-1120.37 243.05,1405.73 -829.8,-560.11 -339.23,-621.61 -409.03,-176.38 -411.4,-181.05 -1103.37,-2160.08 -308.67,110.64 -797.16,-836.18 -315.47,-611.44 -262.69,-850.76 -345.86,-644.97 -186.86,462.39 -463.74,-1427.37 -573.37,-992.68 -171.04,678.32 -448.64,-1522.34 -449.14,-1539.53z"/>
  <path class="fil4 str1" d="M11838.15 10281.96c-80.64,844.03 -753.29,1522.15 -1563.31,1718.86 -857.15,208.16 -1803.59,-121.91 -2111.64,-1003.32 -157.28,-450.02 -128.01,-911.66 142.43,-1306.97 228.08,-333.29 595.9,-594.12 960.26,-759.72 752.07,-341.68 1827.32,-379.65 2351.18,382.25 198.5,288.73 233.24,628.62 221.08,968.9z"/>
  <path class="fil5" d="M6357.59 25336.46l-113.64 0c-16.67,0 -27.28,-9.09 -31.82,-27.27l-311.38 -1406.88c-4.55,-18.18 3.03,-27.27 22.73,-27.27l75 0c16.67,0 26.52,9.09 29.55,27.27l270.46 1304.6 11.37 0 345.47 -1306.87c3.03,-16.67 12.88,-25 29.54,-25l86.37 0c18.18,0 28.79,8.33 31.82,25l347.74 1306.87 11.37 0 268.19 -1304.6c3.03,-18.18 13.64,-27.27 31.82,-27.27l77.27 0c18.19,0 25,9.09 20.46,27.27l-311.38 1406.88c-3.03,18.18 -12.88,27.27 -29.54,27.27l-115.92 0c-16.67,0 -27.27,-9.09 -31.82,-27.27l-336.37 -1281.87 -9.1 0 -338.65 1281.87c-4.54,18.18 -14.39,27.27 -29.54,27.27z"/>
  <path id="1" class="fil5" d="M7914.47 25336.46l-65.91 0c-15.15,0 -22.73,-9.09 -22.73,-27.27l0 -1406.88c0,-18.18 7.58,-27.27 22.73,-27.27l518.2 0c98.49,0 176.52,28.79 234.1,86.36 57.58,57.58 86.37,136.37 86.37,236.38l0 215.92c0,84.85 -21.59,154.55 -64.78,209.09 -43.18,54.55 -101.89,89.4 -176.14,104.55l0 9.1 270.47 572.75c9.09,18.18 3.78,27.27 -15.91,27.27l-70.46 0c-19.7,0 -33.34,-9.09 -40.91,-27.27l-268.2 -572.75 -359.1 0c-15.15,0 -22.73,6.81 -22.73,20.45l0 552.3c0,18.18 -8.33,27.27 -25,27.27zm47.73 -697.76l393.2 0c69.7,0 123.49,-19.31 161.37,-57.95 37.88,-38.64 56.82,-93.57 56.82,-164.78l0 -213.65c0,-71.21 -18.94,-126.52 -56.82,-165.91 -37.88,-39.4 -91.67,-59.1 -161.37,-59.1l-393.2 0c-15.15,0 -22.73,6.82 -22.73,20.46l0 620.48c0,13.64 7.58,20.45 22.73,20.45z"/>
  <path id="2" class="fil5" d="M9344.08 25234.18l259.1 0c69.7,0 123.11,-19.32 160.23,-57.95 37.13,-38.64 55.69,-94.33 55.69,-167.06l0 -806.85c0,-72.73 -18.56,-128.41 -55.69,-167.05 -37.12,-38.64 -90.53,-57.96 -160.23,-57.96l-259.1 0c-69.7,0 -122.73,19.7 -159.1,59.1 -36.36,39.39 -54.55,94.7 -54.55,165.91l0 806.85c0,71.22 18.19,126.52 54.55,165.92 36.37,39.4 89.4,59.09 159.1,59.09zm270.46 102.28l-279.55 0c-98.49,0 -176.15,-28.79 -232.97,-86.37 -56.82,-57.58 -85.23,-136.37 -85.23,-236.37l0 -815.94c0,-100.01 28.41,-178.8 85.23,-236.38 56.82,-57.57 134.48,-86.36 232.97,-86.36l279.55 0c98.49,0 176.15,28.79 232.97,86.36 56.82,57.58 85.23,136.37 85.23,236.38l0 815.94c0,100 -28.41,178.79 -85.23,236.37 -56.82,57.58 -134.48,86.37 -232.97,86.37z"/>
  <path id="3" class="fil5" d="M10878.23 25336.46l-286.37 0c-98.49,0 -176.15,-28.79 -232.97,-86.37 -56.82,-57.58 -85.23,-136.37 -85.23,-236.37l0 -815.94c0,-100.01 28.41,-178.8 85.23,-236.38 56.82,-57.57 134.48,-86.36 232.97,-86.36l286.37 0c98.49,0 176.15,28.79 232.97,86.36 56.82,57.58 85.23,136.37 85.23,236.38l0 111.37c0,18.18 -8.34,27.27 -25,27.27l-63.64 0c-16.67,0 -25,-9.09 -25,-27.27l0 -106.83c0,-72.73 -18.57,-128.41 -55.69,-167.05 -37.12,-38.64 -90.53,-57.96 -160.23,-57.96l-265.92 0c-69.7,0 -122.73,19.7 -159.1,59.1 -36.36,39.39 -54.55,94.7 -54.55,165.91l0 806.85c0,71.22 18.19,126.52 54.55,165.92 36.37,39.4 89.4,59.09 159.1,59.09l265.92 0c69.7,0 123.11,-19.32 160.23,-57.95 37.12,-38.64 55.69,-94.33 55.69,-167.06l0 -106.82c0,-18.18 8.33,-27.27 25,-27.27l63.64 0c16.66,0 25,9.09 25,27.27l0 111.37c0,100 -28.41,178.79 -85.23,236.37 -56.82,57.58 -134.48,86.37 -232.97,86.37z"/>
  <path id="4" class="fil5" d="M12291.93 25336.46l-722.76 0c-16.67,0 -25,-9.09 -25,-27.27l0 -827.31 -163.64 93.19c-16.67,7.57 -25,3.03 -25,-13.64l0 -59.09c0,-15.16 8.33,-27.28 25,-36.37l163.64 -93.19 0 -470.47c0,-18.18 8.33,-27.27 25,-27.27l65.91 0c16.67,0 25,9.09 25,27.27l0 404.56 229.56 -129.55c16.67,-9.09 25,-4.54 25,13.64l0 59.09c0,15.15 -8.33,27.28 -25,36.37l-229.56 129.55 0 793.21c0,13.64 6.82,20.46 20.46,20.46l611.39 0c16.66,0 25,8.33 25,25l0 56.82c0,16.67 -8.34,25 -25,25z"/>
  <path id="5" class="fil5" d="M12635.12 25336.46l-70.46 0c-16.66,0 -21.97,-9.09 -15.91,-27.27l452.3 -1406.88c4.54,-18.18 15.15,-27.27 31.82,-27.27l106.82 0c15.15,0 25.76,9.09 31.82,27.27l452.29 1406.88c4.54,18.18 -0.76,27.27 -15.91,27.27l-72.73 0c-15.15,0 -25,-9.09 -29.55,-27.27l-122.73 -363.66 -595.48 0 -122.73 363.66c-6.06,18.18 -15.91,27.27 -29.55,27.27zm445.47 -1336.42l-261.37 843.22 534.11 0 -263.64 -843.22 -9.1 0z"/>
  <path id="6" class="fil5" d="M14221.55 25336.46l-113.64 0c-16.67,0 -27.28,-9.09 -31.82,-27.27l-311.38 -1406.88c-4.55,-18.18 3.03,-27.27 22.73,-27.27l75 0c16.67,0 26.52,9.09 29.55,27.27l270.46 1304.6 11.37 0 345.47 -1306.87c3.03,-16.67 12.88,-25 29.54,-25l86.37 0c18.18,0 28.79,8.33 31.82,25l347.74 1306.87 11.37 0 268.19 -1304.6c3.03,-18.18 13.64,-27.27 31.82,-27.27l77.27 0c18.19,0 25,9.09 20.46,27.27l-311.38 1406.88c-3.03,18.18 -12.88,27.27 -29.54,27.27l-115.92 0c-16.67,0 -27.27,-9.09 -31.82,-27.27l-336.37 -1281.87 -9.1 0 -338.65 1281.87c-4.54,18.18 -14.39,27.27 -29.54,27.27z"/>
  <path id="7" class="fil5" d="M3082.45 26775.16l63.64 0c16.67,0 25,8.33 25,25l0 1113.68c0,100 -28.41,178.79 -85.23,236.37 -56.82,57.58 -134.47,86.37 -232.96,86.37l-227.29 0c-98.48,0 -176.52,-28.79 -234.1,-86.37 -57.57,-57.58 -86.36,-136.37 -86.36,-236.37l0 -188.64c0,-16.67 8.33,-25.01 25,-25.01l65.91 0c16.67,0 25,8.34 25,25.01l0 184.09c0,72.73 18.18,128.42 54.55,167.06 36.36,38.63 89.4,57.95 159.1,57.95l206.82 0c69.7,0 123.11,-19.32 160.24,-57.95 37.12,-38.64 55.68,-94.33 55.68,-167.06l0 -1106.86c0,-18.18 8.33,-27.27 25,-27.27z"/>
  <path id="8" class="fil5" d="M3507.47 28236.58l-70.46 0c-16.66,0 -21.97,-9.09 -15.91,-27.27l452.3 -1406.88c4.54,-18.18 15.15,-27.27 31.82,-27.27l106.82 0c15.15,0 25.76,9.09 31.82,27.27l452.29 1406.88c4.54,18.18 -0.76,27.27 -15.91,27.27l-72.73 0c-15.15,0 -25,-9.09 -29.55,-27.27l-122.73 -363.66 -595.48 0 -122.73 363.66c-6.06,18.18 -15.91,27.27 -29.55,27.27zm445.47 -1336.42l-261.37 843.22 534.11 0 -263.64 -843.22 -9.1 0z"/>
  <path id="9" class="fil5" d="M5184.81 28236.58l-104.55 0c-15.15,0 -25,-9.09 -29.55,-27.27l-422.74 -1406.88c-6.06,-18.18 0.76,-27.27 20.45,-27.27l70.46 0c15.15,0 25,9.09 29.55,27.27l379.56 1293.24 9.09 0 379.56 -1293.24c4.55,-18.18 14.4,-27.27 29.55,-27.27l70.46 0c18.18,0 25,9.09 20.45,27.27l-422.74 1406.88c-4.55,18.18 -14.4,27.27 -29.55,27.27z"/>
  <path id="10" class="fil5" d="M5855.29 28236.58l-70.46 0c-16.66,0 -21.97,-9.09 -15.91,-27.27l452.3 -1406.88c4.54,-18.18 15.15,-27.27 31.82,-27.27l106.82 0c15.15,0 25.76,9.09 31.82,27.27l452.29 1406.88c4.54,18.18 -0.76,27.27 -15.91,27.27l-72.73 0c-15.15,0 -25,-9.09 -29.55,-27.27l-122.73 -363.66 -595.48 0 -122.73 363.66c-6.06,18.18 -15.91,27.27 -29.55,27.27zm445.47 -1336.42l-261.37 843.22 534.11 0 -263.64 -843.22 -9.1 0z"/>
  <path id="11" class="fil5" d="M8503.12 26775.16l63.64 0c16.67,0 25,8.33 25,25l0 1113.68c0,100 -28.41,178.79 -85.23,236.37 -56.82,57.58 -134.47,86.37 -232.96,86.37l-254.56 0c-98.49,0 -176.14,-28.79 -232.96,-86.37 -56.82,-57.58 -85.23,-136.37 -85.23,-236.37l0 -1111.41c0,-18.18 7.57,-27.27 22.72,-27.27l65.92 0c16.66,0 25,9.09 25,27.27l0 1106.86c0,71.22 18.18,126.52 54.54,165.92 36.37,39.4 89.4,59.09 159.1,59.09l234.1 0c69.7,0 123.11,-19.32 160.24,-57.95 37.12,-38.64 55.68,-94.33 55.68,-167.06l0 -1106.86c0,-18.18 8.33,-27.27 25,-27.27z"/>
  <path id="12" class="fil5" d="M8957.69 27913.84l0 -81.82c0,-16.67 8.33,-25 25,-25l65.91 0c16.67,0 25,8.33 25,25l0 75c0,151.52 73.49,227.28 220.47,227.28l236.37 0c146.97,0 220.46,-76.52 220.46,-229.55l0 -95.46c0,-66.67 -27.27,-118.94 -81.82,-156.82 -54.55,-37.89 -120.46,-65.16 -197.73,-81.83 -77.28,-16.66 -154.93,-34.09 -232.97,-52.27 -78.03,-18.18 -144.32,-51.52 -198.87,-100.01 -54.55,-48.48 -81.82,-113.64 -81.82,-195.46l0 -125c0,-100.01 28.79,-178.8 86.37,-236.38 57.57,-57.57 135.61,-86.36 234.1,-86.36l263.64 0c98.49,0 176.53,28.79 234.1,86.36 57.58,57.58 86.37,136.37 86.37,236.38l0 63.64c0,16.66 -8.33,25 -25,25l-65.91 0c-16.67,0 -25,-8.34 -25,-25l0 -56.82c0,-151.53 -73.49,-227.29 -220.47,-227.29l-234.1 0c-145.46,0 -218.19,77.28 -218.19,231.83l0 113.64c0,104.55 93.19,175.01 279.56,211.37 77.27,15.16 154.93,32.58 232.96,52.28 78.04,19.7 144.33,55.3 198.87,106.82 54.55,51.52 81.83,121.22 81.83,209.1l0 111.37c0,100 -28.79,178.79 -86.37,236.37 -57.58,57.58 -135.61,86.37 -234.1,86.37l-268.19 0c-98.49,0 -176.53,-28.79 -234.1,-86.37 -57.58,-57.58 -86.37,-136.37 -86.37,-236.37z"/>
  <path id="13" class="fil5" d="M10969.13 28236.58l-702.3 0c-15.15,0 -22.73,-9.09 -22.73,-27.27l0 -1406.88c0,-18.18 7.58,-27.27 22.73,-27.27l702.3 0c18.18,0 27.27,8.33 27.27,25l0 52.27c0,16.67 -9.09,25 -27.27,25l-588.66 0c-15.15,0 -22.73,6.82 -22.73,20.46l0 522.75c0,13.63 7.58,20.45 22.73,20.45l525.02 0c16.67,0 25,8.34 25,25l0 52.28c0,16.67 -8.33,25 -25,25l-525.02 0c-15.15,0 -22.73,6.82 -22.73,20.46l0 550.02c0,13.63 7.58,20.45 22.73,20.45l588.66 0c18.18,0 27.27,8.34 27.27,25l0 52.28c0,16.67 -9.09,25 -27.27,25z"/>
  <path id="14" class="fil5" d="M11425.97 28236.58l-65.91 0c-15.15,0 -22.73,-9.09 -22.73,-27.27l0 -1406.88c0,-18.18 7.58,-27.27 22.73,-27.27l518.2 0c98.49,0 176.52,28.79 234.1,86.36 57.58,57.58 86.37,136.37 86.37,236.38l0 215.92c0,84.85 -21.59,154.55 -64.78,209.09 -43.18,54.55 -101.89,89.4 -176.14,104.55l0 9.1 270.47 572.75c9.09,18.18 3.78,27.27 -15.91,27.27l-70.46 0c-19.7,0 -33.34,-9.09 -40.91,-27.27l-268.2 -572.75 -359.1 0c-15.15,0 -22.73,6.81 -22.73,20.45l0 552.3c0,18.18 -8.33,27.27 -25,27.27zm47.73 -697.76l393.2 0c69.7,0 123.49,-19.31 161.37,-57.95 37.88,-38.64 56.82,-93.57 56.82,-164.78l0 -213.65c0,-71.21 -18.94,-126.52 -56.82,-165.91 -37.88,-39.4 -91.67,-59.1 -161.37,-59.1l-393.2 0c-15.15,0 -22.73,6.82 -22.73,20.46l0 620.48c0,13.64 7.58,20.45 22.73,20.45z"/>
  <path id="15" class="fil5" d="M13701.06 28236.58l-247.73 0c-98.49,0 -176.15,-28.79 -232.97,-86.37 -56.82,-57.58 -85.23,-136.37 -85.23,-236.37l0 -815.94c0,-100.01 28.41,-178.8 85.23,-236.38 56.82,-57.57 134.48,-86.36 232.97,-86.36l247.73 0c98.49,0 176.53,28.79 234.1,86.36 57.58,57.58 86.37,136.37 86.37,236.38l0 102.27c0,18.19 -8.33,27.28 -25,27.28l-65.91 0c-16.67,0 -25,-9.09 -25,-27.28l0 -97.73c0,-72.73 -18.19,-128.41 -54.55,-167.05 -36.37,-38.64 -89.4,-57.96 -159.1,-57.96l-229.55 0c-69.7,0 -122.73,19.7 -159.1,59.1 -36.36,39.39 -54.55,94.7 -54.55,165.91l0 806.85c0,71.22 18.19,126.52 54.55,165.92 36.37,39.4 89.4,59.09 159.1,59.09l229.55 0c69.7,0 122.73,-19.32 159.1,-57.95 36.36,-38.64 54.55,-94.33 54.55,-167.06l0 -300.01c0,-13.64 -6.82,-20.45 -20.46,-20.45l-261.37 0c-16.67,0 -25,-8.34 -25,-25l0 -52.28c0,-16.67 8.33,-25 25,-25l354.56 0c28.79,0 43.18,15.15 43.18,45.46l0 381.83c0,100 -28.79,178.79 -86.37,236.37 -57.57,57.58 -135.61,86.37 -234.1,86.37z"/>
  <path id="16" class="fil5" d="M14471.55 28236.58l-65.91 0c-15.15,0 -22.73,-9.09 -22.73,-27.27l0 -1406.88c0,-18.18 7.58,-27.27 22.73,-27.27l518.2 0c98.49,0 176.52,28.79 234.1,86.36 57.58,57.58 86.37,136.37 86.37,236.38l0 215.92c0,84.85 -21.59,154.55 -64.78,209.09 -43.18,54.55 -101.89,89.4 -176.14,104.55l0 9.1 270.47 572.75c9.09,18.18 3.78,27.27 -15.91,27.27l-70.46 0c-19.7,0 -33.34,-9.09 -40.91,-27.27l-268.2 -572.75 -359.1 0c-15.15,0 -22.73,6.81 -22.73,20.45l0 552.3c0,18.18 -8.33,27.27 -25,27.27zm47.73 -697.76l393.2 0c69.7,0 123.49,-19.31 161.37,-57.95 37.88,-38.64 56.82,-93.57 56.82,-164.78l0 -213.65c0,-71.21 -18.94,-126.52 -56.82,-165.91 -37.88,-39.4 -91.67,-59.1 -161.37,-59.1l-393.2 0c-15.15,0 -22.73,6.82 -22.73,20.46l0 620.48c0,13.64 7.58,20.45 22.73,20.45z"/>
  <path id="17" class="fil5" d="M15901.16 28134.3l259.1 0c69.7,0 123.11,-19.32 160.23,-57.95 37.13,-38.64 55.69,-94.33 55.69,-167.06l0 -806.85c0,-72.73 -18.56,-128.41 -55.69,-167.05 -37.12,-38.64 -90.53,-57.96 -160.23,-57.96l-259.1 0c-69.7,0 -122.73,19.7 -159.1,59.1 -36.36,39.39 -54.55,94.7 -54.55,165.91l0 806.85c0,71.22 18.19,126.52 54.55,165.92 36.37,39.4 89.4,59.09 159.1,59.09zm270.46 102.28l-279.55 0c-98.49,0 -176.15,-28.79 -232.97,-86.37 -56.82,-57.58 -85.23,-136.37 -85.23,-236.37l0 -815.94c0,-100.01 28.41,-178.8 85.23,-236.38 56.82,-57.57 134.48,-86.36 232.97,-86.36l279.55 0c98.49,0 176.15,28.79 232.97,86.36 56.82,57.58 85.23,136.37 85.23,236.38l0 815.94c0,100 -28.41,178.79 -85.23,236.37 -56.82,57.58 -134.48,86.37 -232.97,86.37z"/>
  <path id="18" class="fil5" d="M17644.41 26775.16l63.64 0c16.67,0 25,8.33 25,25l0 1113.68c0,100 -28.41,178.79 -85.23,236.37 -56.82,57.58 -134.47,86.37 -232.96,86.37l-254.56 0c-98.49,0 -176.14,-28.79 -232.96,-86.37 -56.82,-57.58 -85.23,-136.37 -85.23,-236.37l0 -1111.41c0,-18.18 7.57,-27.27 22.72,-27.27l65.92 0c16.66,0 25,9.09 25,27.27l0 1106.86c0,71.22 18.18,126.52 54.54,165.92 36.37,39.4 89.4,59.09 159.1,59.09l234.1 0c69.7,0 123.11,-19.32 160.24,-57.95 37.12,-38.64 55.68,-94.33 55.68,-167.06l0 -1106.86c0,-18.18 8.33,-27.27 25,-27.27z"/>
  <path id="19" class="fil5" d="M18196.71 28236.58l-65.91 0c-15.15,0 -22.73,-9.09 -22.73,-27.27l0 -1406.88c0,-18.18 7.58,-27.27 22.73,-27.27l522.75 0c98.49,0 176.52,28.79 234.1,86.36 57.58,57.58 86.36,136.37 86.36,236.38l0 265.92c0,100 -28.78,178.79 -86.36,236.37 -57.58,57.58 -135.61,86.37 -234.1,86.37l-409.11 0c-15.15,0 -22.73,6.06 -22.73,18.18l0 504.57c0,18.18 -8.33,27.27 -25,27.27zm47.73 -654.57l400.02 0c69.7,0 122.73,-19.32 159.09,-57.96 36.37,-38.64 54.55,-93.56 54.55,-164.78l0 -256.83c0,-72.73 -18.18,-128.41 -54.55,-167.05 -36.36,-38.64 -89.39,-57.96 -159.09,-57.96l-400.02 0c-15.15,0 -22.73,6.82 -22.73,20.46l0 665.94c0,12.12 7.58,18.18 22.73,18.18z"/>
  <path id="20" class="fil6 str2" d="M6357.59 25336.46l-113.64 0c-16.67,0 -27.28,-9.09 -31.82,-27.27l-311.38 -1406.88c-4.55,-18.18 3.03,-27.27 22.73,-27.27l75 0c16.67,0 26.52,9.09 29.55,27.27l270.46 1304.6 11.37 0 345.47 -1306.87c3.03,-16.67 12.88,-25 29.54,-25l86.37 0c18.18,0 28.79,8.33 31.82,25l347.74 1306.87 11.37 0 268.19 -1304.6c3.03,-18.18 13.64,-27.27 31.82,-27.27l77.27 0c18.19,0 25,9.09 20.46,27.27l-311.38 1406.88c-3.03,18.18 -12.88,27.27 -29.54,27.27l-115.92 0c-16.67,0 -27.27,-9.09 -31.82,-27.27l-336.37 -1281.87 -9.1 0 -338.65 1281.87c-4.54,18.18 -14.39,27.27 -29.54,27.27z"/>
  <path id="21" class="fil6 str2" d="M7914.47 25336.46l-65.91 0c-15.15,0 -22.73,-9.09 -22.73,-27.27l0 -1406.88c0,-18.18 7.58,-27.27 22.73,-27.27l518.2 0c98.49,0 176.52,28.79 234.1,86.36 57.58,57.58 86.37,136.37 86.37,236.38l0 215.92c0,84.85 -21.59,154.55 -64.78,209.09 -43.18,54.55 -101.89,89.4 -176.14,104.55l0 9.1 270.47 572.75c9.09,18.18 3.78,27.27 -15.91,27.27l-70.46 0c-19.7,0 -33.34,-9.09 -40.91,-27.27l-268.2 -572.75 -359.1 0c-15.15,0 -22.73,6.81 -22.73,20.45l0 552.3c0,18.18 -8.33,27.27 -25,27.27zm47.73 -697.76l393.2 0c69.7,0 123.49,-19.31 161.37,-57.95 37.88,-38.64 56.82,-93.57 56.82,-164.78l0 -213.65c0,-71.21 -18.94,-126.52 -56.82,-165.91 -37.88,-39.4 -91.67,-59.1 -161.37,-59.1l-393.2 0c-15.15,0 -22.73,6.82 -22.73,20.46l0 620.48c0,13.64 7.58,20.45 22.73,20.45z"/>
  <path id="22" class="fil6 str2" d="M9344.08 25234.18l259.1 0c69.7,0 123.11,-19.32 160.23,-57.95 37.13,-38.64 55.69,-94.33 55.69,-167.06l0 -806.85c0,-72.73 -18.56,-128.41 -55.69,-167.05 -37.12,-38.64 -90.53,-57.96 -160.23,-57.96l-259.1 0c-69.7,0 -122.73,19.7 -159.1,59.1 -36.36,39.39 -54.55,94.7 -54.55,165.91l0 806.85c0,71.22 18.19,126.52 54.55,165.92 36.37,39.4 89.4,59.09 159.1,59.09zm270.46 102.28l-279.55 0c-98.49,0 -176.15,-28.79 -232.97,-86.37 -56.82,-57.58 -85.23,-136.37 -85.23,-236.37l0 -815.94c0,-100.01 28.41,-178.8 85.23,-236.38 56.82,-57.57 134.48,-86.36 232.97,-86.36l279.55 0c98.49,0 176.15,28.79 232.97,86.36 56.82,57.58 85.23,136.37 85.23,236.38l0 815.94c0,100 -28.41,178.79 -85.23,236.37 -56.82,57.58 -134.48,86.37 -232.97,86.37z"/>
  <path id="23" class="fil6 str2" d="M10878.23 25336.46l-286.37 0c-98.49,0 -176.15,-28.79 -232.97,-86.37 -56.82,-57.58 -85.23,-136.37 -85.23,-236.37l0 -815.94c0,-100.01 28.41,-178.8 85.23,-236.38 56.82,-57.57 134.48,-86.36 232.97,-86.36l286.37 0c98.49,0 176.15,28.79 232.97,86.36 56.82,57.58 85.23,136.37 85.23,236.38l0 111.37c0,18.18 -8.34,27.27 -25,27.27l-63.64 0c-16.67,0 -25,-9.09 -25,-27.27l0 -106.83c0,-72.73 -18.57,-128.41 -55.69,-167.05 -37.12,-38.64 -90.53,-57.96 -160.23,-57.96l-265.92 0c-69.7,0 -122.73,19.7 -159.1,59.1 -36.36,39.39 -54.55,94.7 -54.55,165.91l0 806.85c0,71.22 18.19,126.52 54.55,165.92 36.37,39.4 89.4,59.09 159.1,59.09l265.92 0c69.7,0 123.11,-19.32 160.23,-57.95 37.12,-38.64 55.69,-94.33 55.69,-167.06l0 -106.82c0,-18.18 8.33,-27.27 25,-27.27l63.64 0c16.66,0 25,9.09 25,27.27l0 111.37c0,100 -28.41,178.79 -85.23,236.37 -56.82,57.58 -134.48,86.37 -232.97,86.37z"/>
  <path id="24" class="fil6 str2" d="M12291.93 25336.46l-722.76 0c-16.67,0 -25,-9.09 -25,-27.27l0 -827.31 -163.64 93.19c-16.67,7.57 -25,3.03 -25,-13.64l0 -59.09c0,-15.16 8.33,-27.28 25,-36.37l163.64 -93.19 0 -470.47c0,-18.18 8.33,-27.27 25,-27.27l65.91 0c16.67,0 25,9.09 25,27.27l0 404.56 229.56 -129.55c16.67,-9.09 25,-4.54 25,13.64l0 59.09c0,15.15 -8.33,27.28 -25,36.37l-229.56 129.55 0 793.21c0,13.64 6.82,20.46 20.46,20.46l611.39 0c16.66,0 25,8.33 25,25l0 56.82c0,16.67 -8.34,25 -25,25z"/>
  <path id="25" class="fil6 str2" d="M12635.12 25336.46l-70.46 0c-16.66,0 -21.97,-9.09 -15.91,-27.27l452.3 -1406.88c4.54,-18.18 15.15,-27.27 31.82,-27.27l106.82 0c15.15,0 25.76,9.09 31.82,27.27l452.29 1406.88c4.54,18.18 -0.76,27.27 -15.91,27.27l-72.73 0c-15.15,0 -25,-9.09 -29.55,-27.27l-122.73 -363.66 -595.48 0 -122.73 363.66c-6.06,18.18 -15.91,27.27 -29.55,27.27zm445.47 -1336.42l-261.37 843.22 534.11 0 -263.64 -843.22 -9.1 0z"/>
  <path id="26" class="fil6 str2" d="M14221.55 25336.46l-113.64 0c-16.67,0 -27.28,-9.09 -31.82,-27.27l-311.38 -1406.88c-4.55,-18.18 3.03,-27.27 22.73,-27.27l75 0c16.67,0 26.52,9.09 29.55,27.27l270.46 1304.6 11.37 0 345.47 -1306.87c3.03,-16.67 12.88,-25 29.54,-25l86.37 0c18.18,0 28.79,8.33 31.82,25l347.74 1306.87 11.37 0 268.19 -1304.6c3.03,-18.18 13.64,-27.27 31.82,-27.27l77.27 0c18.19,0 25,9.09 20.46,27.27l-311.38 1406.88c-3.03,18.18 -12.88,27.27 -29.54,27.27l-115.92 0c-16.67,0 -27.27,-9.09 -31.82,-27.27l-336.37 -1281.87 -9.1 0 -338.65 1281.87c-4.54,18.18 -14.39,27.27 -29.54,27.27z"/>
  <path id="27" class="fil6 str2" d="M3082.45 26775.16l63.64 0c16.67,0 25,8.33 25,25l0 1113.68c0,100 -28.41,178.79 -85.23,236.37 -56.82,57.58 -134.47,86.37 -232.96,86.37l-227.29 0c-98.48,0 -176.52,-28.79 -234.1,-86.37 -57.57,-57.58 -86.36,-136.37 -86.36,-236.37l0 -188.64c0,-16.67 8.33,-25.01 25,-25.01l65.91 0c16.67,0 25,8.34 25,25.01l0 184.09c0,72.73 18.18,128.42 54.55,167.06 36.36,38.63 89.4,57.95 159.1,57.95l206.82 0c69.7,0 123.11,-19.32 160.24,-57.95 37.12,-38.64 55.68,-94.33 55.68,-167.06l0 -1106.86c0,-18.18 8.33,-27.27 25,-27.27z"/>
  <path id="28" class="fil6 str2" d="M3507.47 28236.58l-70.46 0c-16.66,0 -21.97,-9.09 -15.91,-27.27l452.3 -1406.88c4.54,-18.18 15.15,-27.27 31.82,-27.27l106.82 0c15.15,0 25.76,9.09 31.82,27.27l452.29 1406.88c4.54,18.18 -0.76,27.27 -15.91,27.27l-72.73 0c-15.15,0 -25,-9.09 -29.55,-27.27l-122.73 -363.66 -595.48 0 -122.73 363.66c-6.06,18.18 -15.91,27.27 -29.55,27.27zm445.47 -1336.42l-261.37 843.22 534.11 0 -263.64 -843.22 -9.1 0z"/>
  <path id="29" class="fil6 str2" d="M5184.81 28236.58l-104.55 0c-15.15,0 -25,-9.09 -29.55,-27.27l-422.74 -1406.88c-6.06,-18.18 0.76,-27.27 20.45,-27.27l70.46 0c15.15,0 25,9.09 29.55,27.27l379.56 1293.24 9.09 0 379.56 -1293.24c4.55,-18.18 14.4,-27.27 29.55,-27.27l70.46 0c18.18,0 25,9.09 20.45,27.27l-422.74 1406.88c-4.55,18.18 -14.4,27.27 -29.55,27.27z"/>
  <path id="30" class="fil6 str2" d="M5855.29 28236.58l-70.46 0c-16.66,0 -21.97,-9.09 -15.91,-27.27l452.3 -1406.88c4.54,-18.18 15.15,-27.27 31.82,-27.27l106.82 0c15.15,0 25.76,9.09 31.82,27.27l452.29 1406.88c4.54,18.18 -0.76,27.27 -15.91,27.27l-72.73 0c-15.15,0 -25,-9.09 -29.55,-27.27l-122.73 -363.66 -595.48 0 -122.73 363.66c-6.06,18.18 -15.91,27.27 -29.55,27.27zm445.47 -1336.42l-261.37 843.22 534.11 0 -263.64 -843.22 -9.1 0z"/>
  <path id="31" class="fil6 str2" d="M8503.12 26775.16l63.64 0c16.67,0 25,8.33 25,25l0 1113.68c0,100 -28.41,178.79 -85.23,236.37 -56.82,57.58 -134.47,86.37 -232.96,86.37l-254.56 0c-98.49,0 -176.14,-28.79 -232.96,-86.37 -56.82,-57.58 -85.23,-136.37 -85.23,-236.37l0 -1111.41c0,-18.18 7.57,-27.27 22.72,-27.27l65.92 0c16.66,0 25,9.09 25,27.27l0 1106.86c0,71.22 18.18,126.52 54.54,165.92 36.37,39.4 89.4,59.09 159.1,59.09l234.1 0c69.7,0 123.11,-19.32 160.24,-57.95 37.12,-38.64 55.68,-94.33 55.68,-167.06l0 -1106.86c0,-18.18 8.33,-27.27 25,-27.27z"/>
  <path id="32" class="fil6 str2" d="M8957.69 27913.84l0 -81.82c0,-16.67 8.33,-25 25,-25l65.91 0c16.67,0 25,8.33 25,25l0 75c0,151.52 73.49,227.28 220.47,227.28l236.37 0c146.97,0 220.46,-76.52 220.46,-229.55l0 -95.46c0,-66.67 -27.27,-118.94 -81.82,-156.82 -54.55,-37.89 -120.46,-65.16 -197.73,-81.83 -77.28,-16.66 -154.93,-34.09 -232.97,-52.27 -78.03,-18.18 -144.32,-51.52 -198.87,-100.01 -54.55,-48.48 -81.82,-113.64 -81.82,-195.46l0 -125c0,-100.01 28.79,-178.8 86.37,-236.38 57.57,-57.57 135.61,-86.36 234.1,-86.36l263.64 0c98.49,0 176.53,28.79 234.1,86.36 57.58,57.58 86.37,136.37 86.37,236.38l0 63.64c0,16.66 -8.33,25 -25,25l-65.91 0c-16.67,0 -25,-8.34 -25,-25l0 -56.82c0,-151.53 -73.49,-227.29 -220.47,-227.29l-234.1 0c-145.46,0 -218.19,77.28 -218.19,231.83l0 113.64c0,104.55 93.19,175.01 279.56,211.37 77.27,15.16 154.93,32.58 232.96,52.28 78.04,19.7 144.33,55.3 198.87,106.82 54.55,51.52 81.83,121.22 81.83,209.1l0 111.37c0,100 -28.79,178.79 -86.37,236.37 -57.58,57.58 -135.61,86.37 -234.1,86.37l-268.19 0c-98.49,0 -176.53,-28.79 -234.1,-86.37 -57.58,-57.58 -86.37,-136.37 -86.37,-236.37z"/>
  <path id="33" class="fil6 str2" d="M10969.13 28236.58l-702.3 0c-15.15,0 -22.73,-9.09 -22.73,-27.27l0 -1406.88c0,-18.18 7.58,-27.27 22.73,-27.27l702.3 0c18.18,0 27.27,8.33 27.27,25l0 52.27c0,16.67 -9.09,25 -27.27,25l-588.66 0c-15.15,0 -22.73,6.82 -22.73,20.46l0 522.75c0,13.63 7.58,20.45 22.73,20.45l525.02 0c16.67,0 25,8.34 25,25l0 52.28c0,16.67 -8.33,25 -25,25l-525.02 0c-15.15,0 -22.73,6.82 -22.73,20.46l0 550.02c0,13.63 7.58,20.45 22.73,20.45l588.66 0c18.18,0 27.27,8.34 27.27,25l0 52.28c0,16.67 -9.09,25 -27.27,25z"/>
  <path id="34" class="fil6 str2" d="M11425.97 28236.58l-65.91 0c-15.15,0 -22.73,-9.09 -22.73,-27.27l0 -1406.88c0,-18.18 7.58,-27.27 22.73,-27.27l518.2 0c98.49,0 176.52,28.79 234.1,86.36 57.58,57.58 86.37,136.37 86.37,236.38l0 215.92c0,84.85 -21.59,154.55 -64.78,209.09 -43.18,54.55 -101.89,89.4 -176.14,104.55l0 9.1 270.47 572.75c9.09,18.18 3.78,27.27 -15.91,27.27l-70.46 0c-19.7,0 -33.34,-9.09 -40.91,-27.27l-268.2 -572.75 -359.1 0c-15.15,0 -22.73,6.81 -22.73,20.45l0 552.3c0,18.18 -8.33,27.27 -25,27.27zm47.73 -697.76l393.2 0c69.7,0 123.49,-19.31 161.37,-57.95 37.88,-38.64 56.82,-93.57 56.82,-164.78l0 -213.65c0,-71.21 -18.94,-126.52 -56.82,-165.91 -37.88,-39.4 -91.67,-59.1 -161.37,-59.1l-393.2 0c-15.15,0 -22.73,6.82 -22.73,20.46l0 620.48c0,13.64 7.58,20.45 22.73,20.45z"/>
  <path id="35" class="fil6 str2" d="M13701.06 28236.58l-247.73 0c-98.49,0 -176.15,-28.79 -232.97,-86.37 -56.82,-57.58 -85.23,-136.37 -85.23,-236.37l0 -815.94c0,-100.01 28.41,-178.8 85.23,-236.38 56.82,-57.57 134.48,-86.36 232.97,-86.36l247.73 0c98.49,0 176.53,28.79 234.1,86.36 57.58,57.58 86.37,136.37 86.37,236.38l0 102.27c0,18.19 -8.33,27.28 -25,27.28l-65.91 0c-16.67,0 -25,-9.09 -25,-27.28l0 -97.73c0,-72.73 -18.19,-128.41 -54.55,-167.05 -36.37,-38.64 -89.4,-57.96 -159.1,-57.96l-229.55 0c-69.7,0 -122.73,19.7 -159.1,59.1 -36.36,39.39 -54.55,94.7 -54.55,165.91l0 806.85c0,71.22 18.19,126.52 54.55,165.92 36.37,39.4 89.4,59.09 159.1,59.09l229.55 0c69.7,0 122.73,-19.32 159.1,-57.95 36.36,-38.64 54.55,-94.33 54.55,-167.06l0 -300.01c0,-13.64 -6.82,-20.45 -20.46,-20.45l-261.37 0c-16.67,0 -25,-8.34 -25,-25l0 -52.28c0,-16.67 8.33,-25 25,-25l354.56 0c28.79,0 43.18,15.15 43.18,45.46l0 381.83c0,100 -28.79,178.79 -86.37,236.37 -57.57,57.58 -135.61,86.37 -234.1,86.37z"/>
  <path id="36" class="fil6 str2" d="M14471.55 28236.58l-65.91 0c-15.15,0 -22.73,-9.09 -22.73,-27.27l0 -1406.88c0,-18.18 7.58,-27.27 22.73,-27.27l518.2 0c98.49,0 176.52,28.79 234.1,86.36 57.58,57.58 86.37,136.37 86.37,236.38l0 215.92c0,84.85 -21.59,154.55 -64.78,209.09 -43.18,54.55 -101.89,89.4 -176.14,104.55l0 9.1 270.47 572.75c9.09,18.18 3.78,27.27 -15.91,27.27l-70.46 0c-19.7,0 -33.34,-9.09 -40.91,-27.27l-268.2 -572.75 -359.1 0c-15.15,0 -22.73,6.81 -22.73,20.45l0 552.3c0,18.18 -8.33,27.27 -25,27.27zm47.73 -697.76l393.2 0c69.7,0 123.49,-19.31 161.37,-57.95 37.88,-38.64 56.82,-93.57 56.82,-164.78l0 -213.65c0,-71.21 -18.94,-126.52 -56.82,-165.91 -37.88,-39.4 -91.67,-59.1 -161.37,-59.1l-393.2 0c-15.15,0 -22.73,6.82 -22.73,20.46l0 620.48c0,13.64 7.58,20.45 22.73,20.45z"/>
  <path id="37" class="fil6 str2" d="M15901.16 28134.3l259.1 0c69.7,0 123.11,-19.32 160.23,-57.95 37.13,-38.64 55.69,-94.33 55.69,-167.06l0 -806.85c0,-72.73 -18.56,-128.41 -55.69,-167.05 -37.12,-38.64 -90.53,-57.96 -160.23,-57.96l-259.1 0c-69.7,0 -122.73,19.7 -159.1,59.1 -36.36,39.39 -54.55,94.7 -54.55,165.91l0 806.85c0,71.22 18.19,126.52 54.55,165.92 36.37,39.4 89.4,59.09 159.1,59.09zm270.46 102.28l-279.55 0c-98.49,0 -176.15,-28.79 -232.97,-86.37 -56.82,-57.58 -85.23,-136.37 -85.23,-236.37l0 -815.94c0,-100.01 28.41,-178.8 85.23,-236.38 56.82,-57.57 134.48,-86.36 232.97,-86.36l279.55 0c98.49,0 176.15,28.79 232.97,86.36 56.82,57.58 85.23,136.37 85.23,236.38l0 815.94c0,100 -28.41,178.79 -85.23,236.37 -56.82,57.58 -134.48,86.37 -232.97,86.37z"/>
  <path id="38" class="fil6 str2" d="M17644.41 26775.16l63.64 0c16.67,0 25,8.33 25,25l0 1113.68c0,100 -28.41,178.79 -85.23,236.37 -56.82,57.58 -134.47,86.37 -232.96,86.37l-254.56 0c-98.49,0 -176.14,-28.79 -232.96,-86.37 -56.82,-57.58 -85.23,-136.37 -85.23,-236.37l0 -1111.41c0,-18.18 7.57,-27.27 22.72,-27.27l65.92 0c16.66,0 25,9.09 25,27.27l0 1106.86c0,71.22 18.18,126.52 54.54,165.92 36.37,39.4 89.4,59.09 159.1,59.09l234.1 0c69.7,0 123.11,-19.32 160.24,-57.95 37.12,-38.64 55.68,-94.33 55.68,-167.06l0 -1106.86c0,-18.18 8.33,-27.27 25,-27.27z"/>
  <path id="39" class="fil6 str2" d="M18196.71 28236.58l-65.91 0c-15.15,0 -22.73,-9.09 -22.73,-27.27l0 -1406.88c0,-18.18 7.58,-27.27 22.73,-27.27l522.75 0c98.49,0 176.52,28.79 234.1,86.36 57.58,57.58 86.36,136.37 86.36,236.38l0 265.92c0,100 -28.78,178.79 -86.36,236.37 -57.58,57.58 -135.61,86.37 -234.1,86.37l-409.11 0c-15.15,0 -22.73,6.06 -22.73,18.18l0 504.57c0,18.18 -8.33,27.27 -25,27.27zm47.73 -654.57l400.02 0c69.7,0 122.73,-19.32 159.09,-57.96 36.37,-38.64 54.55,-93.56 54.55,-164.78l0 -256.83c0,-72.73 -18.18,-128.41 -54.55,-167.05 -36.36,-38.64 -89.39,-57.96 -159.09,-57.96l-400.02 0c-15.15,0 -22.73,6.82 -22.73,20.46l0 665.94c0,12.12 7.58,18.18 22.73,18.18z"/>
  <path class="fil7 str3" d="M11889.34 8189.78c-12.61,-18.48 -29.68,-46.66 -50.39,-75.71 -841.69,-1181.45 -5139.63,-5693.19 -4726.04,-4796.5 270.84,564.91 399.98,3938.62 104.36,6418.96 -5.09,42.72 -6.25,209.67 15.28,173.07 1259.31,-2139.84 4034.64,-2009.74 4656.79,-1719.82z"/>
 </g>
</svg>
