<?xml version="1.0" encoding="UTF-8"?>
<!DOCTYPE svg PUBLIC "-//W3C//DTD SVG 1.1//EN" "http://www.w3.org/Graphics/SVG/1.1/DTD/svg11.dtd">
<!-- Creator: CorelDRAW 2017 -->
<svg xmlns="http://www.w3.org/2000/svg" xml:space="preserve" width="210mm" height="297mm" version="1.1" style="shape-rendering:geometricPrecision; text-rendering:geometricPrecision; image-rendering:optimizeQuality; fill-rule:evenodd; clip-rule:evenodd"
viewBox="0 0 21000 29700"
 xmlns:xlink="http://www.w3.org/1999/xlink"
 enable-background="new 0 0 225.938 407.407">
 <defs>
  <style type="text/css">
   <![CDATA[
    .str2 {stroke:black;stroke-width:500;stroke-miterlimit:22.9256}
    .str1 {stroke:black;stroke-width:26.46;stroke-miterlimit:22.9256}
    .str0 {stroke:black;stroke-width:20;stroke-miterlimit:22.9256}
    .fil2 {fill:none}
    .fil0 {fill:black}
    .fil3 {fill:black}
    .fil5 {fill:#ED671C}
    .fil1 {fill:white}
    .fil4 {fill:url(#id0)}
   ]]>
  </style>
  <radialGradient id="id0" gradientUnits="userSpaceOnUse" gradientTransform="matrix(1.51734 -0 -0 1.42166 -4453 -5288)" cx="8608.45" cy="12541.43" r="924.09" fx="8608.45" fy="12541.43">
   <stop offset="0" style="stop-opacity:1; stop-color:white"/>
   <stop offset="0.0588235" style="stop-opacity:1; stop-color:#FBC2B2"/>
   <stop offset="0.0705882" style="stop-opacity:1; stop-color:#FBBCAE"/>
   <stop offset="0.180392" style="stop-opacity:1; stop-color:#F78F89"/>
   <stop offset="0.301961" style="stop-opacity:1; stop-color:#F4696C"/>
   <stop offset="0.419608" style="stop-opacity:1; stop-color:#F14F59"/>
   <stop offset="0.54902" style="stop-opacity:1; stop-color:#EF3847"/>
   <stop offset="0.678431" style="stop-opacity:1; stop-color:#EE273B"/>
   <stop offset="0.819608" style="stop-opacity:1; stop-color:#ED1D33"/>
   <stop offset="1" style="stop-opacity:1; stop-color:#ED1A30"/>
  </radialGradient>
 </defs>
 <g id="Warstwa_x0020_1">
  <metadata id="CorelCorpID_0Corel-Layer"/>
  <path class="fil0" d="M6360.63 12420.87c-41.96,30.42 -182.89,-119.15 -187.01,-67.59 -137.69,1719.19 -469.26,3301.73 -693.33,4283 -684.47,3002.62 -1368.92,6819.59 -1528.79,10032.02 -69.94,1368.91 139.89,1908.48 1034.19,1908.48 1578.75,0 3582.17,-3327.35 6095.15,-3252.42 2518,74.95 3317.37,3816.96 4496.43,3791.99 1179.06,-24.99 2128.3,-434.66 2138.3,-4076.75 19.3,-6005.52 -2796.26,-11346.12 -5730.56,-15207.62 -28.51,-37.5 -154.21,450.72 -201.13,451.19 -2869.34,29.14 -2950.38,343.64 -5423.25,2137.7z"/>
  <path class="fil0" d="M13856.8 12563.12c554.57,934.27 1990.25,206.24 2050.21,-847.94 59.95,-1054.17 -94.94,-2383.12 -779.38,-2433.08 -684.47,-49.96 -1174.08,-734.43 -1858.53,-784.39 -684.47,-49.96 -1418.87,634.51 -1738.61,-274.79 -319.75,-909.3 859.31,-1293.98 1738.61,-1438.86 -784.39,-784.39 -1244.02,-1653.69 -1588.73,-2557.96 -344.74,-904.3 -599.53,-1733.64 364.72,-2088.34 964.25,-354.73 884.31,1468.83 1988.42,2303.18 -324.76,-1229.02 -444.66,-1738.62 -419.67,-2453.06 25,-714.45 -24.99,-1259 989.22,-1119.11 1014.2,139.89 574.55,2248.21 1363.92,3107.53 239.81,-814.37 384.71,-1848.53 964.25,-2273.21 579.54,-424.67 1898.49,-434.67 1059.16,1308.96 -839.33,1743.63 244.82,2687.86 -9.99,4061.78 -254.81,1373.92 -1044.19,1124.12 -1383.92,2008.41 -339.73,884.31 199.84,2897.69 -439.65,3801.98 -639.49,904.3 -754.41,2293.19 -339.73,3402.31 -311.9,-291.11 -1953.04,-3726.27 -1960.3,-3723.41z"/>
  <path class="fil0" d="M6086.13 13705.93c-514.61,3527.25 -2449.39,3969.52 -2539.32,5433.37 -89.93,1463.85 474.64,1603.74 439.65,2957.65 -34.99,1353.94 -1239.01,1903.5 -1383.91,2637.9 -144.9,734.4 619.51,969.23 1064.16,969.23 444.66,0 889.3,-1948.45 1069.15,-3187.46 179.86,-1239.02 -589.53,-1968.44 -589.53,-2817.76 0,-849.33 1114.13,-2403.1 909.28,-1039.18 438.92,-692.75 987.19,-4924.9 1030.52,-4953.75z"/>
  <path class="fil1" d="M6629.45 15072.46c-389.69,1908.48 -2822.77,12565.02 -1583.75,12699.9 1239.01,134.9 3002.62,-3297.38 5890.32,-3272.41 2892.72,24.99 4031.81,3846.94 4736.24,3821.97 699.15,-56.75 1169.07,249.8 1244.02,-4056.77 74.95,-4306.58 -2552.98,-9807.22 -4106.73,-12230.28 -2108.4,134.88 -4376.6,1823.62 -6180.1,3037.59l0 0 0 0 0 0z"/>
  <path class="fil2" d="M12240.94 12794.27c-135.29,-1266.42 -1326.71,-1763.95 -2474.48,-1607.62 -963.75,131.37 -2248.43,944.6 -2366.65,1987.32 -133.31,1175.23 791.18,2256.68 1967.93,2303.94 1042.93,41.91 2163.3,-462.68 2631.93,-1442.61 189.45,-395.8 263.49,-803.4 241.27,-1241.03"/>
  <path class="fil3" d="M12790.51 12749.29c-115.32,-1193.14 -999.71,-1942.07 -2143.78,-2125.18 -1104.95,-176.87 -2307.88,346.81 -3081.44,1120.37 -869.99,869.99 -904.76,2080.15 -295.59,3110.93 600.99,1017.04 1932.3,1353.15 3022.79,1098.79 1492.31,-348.02 2595.03,-1653.15 2498.02,-3204.91z"/>
  <path class="fil0 str0" d="M6157.3 15427.44c1320.79,-1107.59 1932.44,-1486.68 3487.82,-2637.06 8.07,-5.97 2527,-499.56 2961.72,-772.61 224.87,-141.25 591.42,406.89 830.03,370.94 514.42,1470.51 344.26,1480.3 444.45,2627.2 139,1591.29 24.26,2212.72 -95.7,1904.01 -526.16,-1353.75 -202.64,2111.06 -219.58,2286.94 -12.82,132.62 -298.45,-437.32 -586.32,-721.23 -186.28,-183.78 60.71,1407.92 -245.56,1733.62 -126.18,134.13 -328.77,-455.8 -391.47,-326.97 -381.02,783.52 -157.31,1042.29 -418.07,558.03 -156.9,-291.4 -377.36,1450.52 -377.8,1457.01 -71.29,1066.66 -328.6,-975.22 -556.1,-455.28 -256.03,585.22 -74.08,832.77 -456.75,83.6 -871.93,-1439.36 312.25,1805.97 -1066.05,-719.59 -435.82,-798.58 -525.49,-226.59 -528.54,-232.59 -1417.52,-2775.1 -396.55,142.14 -1024.12,-1074.26 -405.29,-785.53 -337.48,-1092.98 -444.33,-828.6 -240.06,594.04 -595.77,-1833.77 -736.62,-1275.31 -219.73,871.45 -576.38,-1955.78 -577.01,-1977.85z"/>
  <path class="fil4 str1" d="M12240.94 13193.95c-103.59,1084.34 -967.76,1955.53 -2008.4,2208.25 -1101.2,267.42 -2317.11,-156.62 -2712.85,-1288.98 -202.07,-578.15 -164.47,-1171.22 182.97,-1679.08 293.03,-428.19 765.56,-763.28 1233.67,-976.02 966.19,-438.97 2347.58,-487.75 3020.59,491.07 255.02,370.94 299.66,807.6 284.02,1244.76z"/>
  <path class="fil5 str2" d="M12200.88 10622.51c-16.22,-23.74 -31.56,-137.34 -58.13,-174.64 -1081.33,-1517.83 -6503.74,-7353.18 -5972.4,-6201.18 347.97,725.75 601.13,5034.88 221.41,8221.39 -6.55,54.89 15.74,242.22 50.06,199.87 1935.3,-2389.19 4959.77,-2417.91 5759.06,-2045.44z"/>
 </g>
</svg>
