<svg id="Layer_1" data-name="Layer 1" xmlns="http://www.w3.org/2000/svg" xmlns:xlink="http://www.w3.org/1999/xlink" viewBox="0 0 4437 1520"><defs><radialGradient id="radial-gradient" cx="760.37" cy="1312.26" r="0.32" gradientTransform="matrix(243.73, 0, 0, -243.58, -184915.36, 320293.65)" gradientUnits="userSpaceOnUse"><stop offset="0" stop-color="#fff"/><stop offset="0.06" stop-color="#fbc2b2"/><stop offset="0.07" stop-color="#fbbcae"/><stop offset="0.18" stop-color="#f78f89"/><stop offset="0.3" stop-color="#f4696c"/><stop offset="0.42" stop-color="#f14f59"/><stop offset="0.55" stop-color="#ef3847"/><stop offset="0.68" stop-color="#ee273b"/><stop offset="0.82" stop-color="#ed1d33"/><stop offset="1" stop-color="#ed1a30"/></radialGradient></defs><title>wroclaw-jug-logo-horizontal</title><path d="M769.53,187c-25,18.33-31.28,63-41.64,98.1C693.8,248,712.79,157,669,151s-41.64,17.46-42.72,48.3,4.1,52.82,18.12,105.86c-47.68-36-44.23-114.7-85.87-99.4s-30.64,51.1-15.75,90.12,34.73,76.54,68.61,110.39c-38,6.25-88.89,22.85-75.08,62.09s45.52,9.7,75.08,11.86,50.7,31.7,80.26,33.85,36.24,59.51,33.66,105c-2.51,44.06-59.87,74.58-85.23,39.81-15.21-25-31-49-47-72l.7.33q-17.34-25.41-17.55-25.72l-.66-1c-.66-1-1.19-1.8-1.77-2.62-11.41-16-34.25-43.16-64.47-76.9C480.75,449,447.21,413.08,415.8,380.7c-33-34-61.49-61.9-80.73-78.84-10.77-9.48-18.58-15.52-23.73-18.1a15.94,15.94,0,0,0-5.58-1.78,10.06,10.06,0,0,0-4.71.59,9.35,9.35,0,0,0-4.8,4.15,10,10,0,0,0-1.27,4.73,13.4,13.4,0,0,0,.35,3.29,28.07,28.07,0,0,0,2,5.57c1.47,3.07,3.07,8.76,4.57,16.61,1.54,8.06,3,18.23,4.21,30.15,2.52,24,4.29,54.46,5.09,88,.83,34.86.59,71.92-.76,108-1.45,38.83-4.16,75.71-8.07,108.54a59,59,0,0,0-.18,7.78c0,.27,0,.51,0,.76-2.31,25.16-5.34,49.46-8.7,72.11-27.29,127.3-98.34,148-102,207.15-3.88,63.17,20.5,69.21,19,127.64s-53.5,82.15-59.76,113.84,26.75,41.83,46,41.83c5.6,0,11.21-7.17,16.53-18.64-1.82,20.49-3.25,40.63-4.23,60.25-3,59.08,6,82.36,44.66,82.36,68.17,0,154.69-143.59,263.2-140.36,108.73,3.23,143.25,164.72,194.17,163.65s91.91-18.76,92.34-175.94c.44-137.19-33.18-266.55-83.71-382.64-15.81-47-10.28-104.23,16.4-141.93,27.61-39,4.31-125.91,19-164.08s48.76-27.38,59.76-86.67-35.81-100,.43-175.29S794.55,168.63,769.53,187Zm-205,468.11a121.06,121.06,0,0,1,1.74,27.74c-2.16,22.51-12.07,43.59-28,60.66a118.25,118.25,0,0,1-58.17,34c-23.8,5.78-48.63,4-69.53-5.12a86.7,86.7,0,0,1-28.09-19.37,83.87,83.87,0,0,1-18.66-30.67c-9-25.7-6.55-50.82,7.81-71.81a108.63,108.63,0,0,1,23.64-24.38,151.09,151.09,0,0,1,29.33-17.49c21.82-9.91,47-14.56,69.59-12.29A90.8,90.8,0,0,1,527.61,606a73.31,73.31,0,0,1,26.51,23.56A66.83,66.83,0,0,1,564.52,655.06ZM324.06,314.33c18.84,16.59,47.1,44.25,79.79,77.94,31.26,32.23,64.65,68,93.09,99.75,21.71,24.23,39.56,45,51.89,60.47A213.37,213.37,0,0,0,525.17,550a282.31,282.31,0,0,0-73,5.9C423.3,562.05,396.11,572.66,372,588a205.88,205.88,0,0,0-50.91,45.59c2.8-28,4.8-58.3,6-89.86,1.37-36.46,1.61-73.86.77-109.06-.81-33.93-2.6-64.82-5.17-89.31a338,338,0,0,0-5.54-37Q320.32,311,324.06,314.33ZM312.39,293.2l0,0-.07-.11ZM217.44,963.58c0-35.46,45-99.38,39.95-50.19-7.45,36.72-14.58,75-21,113.71C228.51,1004.17,217.44,984.73,217.44,963.58Zm551.44,197.06c-3.24,185.85-23.3,174-53.72,175.07s-79.61-163.86-204.52-164.94c-124.7-1.08-200.86,147-254.36,141.22-45.05-4.9,22.32-331.72,54.78-484,.52,2.93,1.05,5.78,1.59,8.53,2.84,14.6,5.58,25.29,8.15,31a14.78,14.78,0,0,0,2.16,3.65,2.74,2.74,0,0,0,2.55,1.18c1.68-.33,3-2.81,4.22-7.58a4.69,4.69,0,0,1,1.89-3.15c.79.38,1.86,2.14,3.09,5.15,1.11,2.71,2.35,6.36,3.88,11.36.61,2,1.25,4.15,2.09,7l2.17,7.39c2.29,7.77,3.9,12.92,5.52,17.45,2.36,6.6,4.44,10.91,6.41,12.95,1.2,1.24,2.42,1.68,3.62,1.16s2.18-1.9,3.12-4.21a15.93,15.93,0,0,1,1.85-3.65,8.62,8.62,0,0,1,1.33,2.91c.24.69,1.93,5.83,2.6,7.78,1.4,4,2.88,8,4.66,12.24,2.21,5.29,4.76,10.76,7.73,16.52a104.79,104.79,0,0,0,6.25,10.94c1.57,2.24,2.65,3.18,3.61,2.8a1.75,1.75,0,0,0,.93-1.38,10.66,10.66,0,0,0,.2-2.2c0-1.41-.05-2.62-.39-7.34-.3-4.3-.32-6.73,0-8.35.19-.87.48-1.33.8-1.43s1,.15,1.95.95c4.76,4.13,14.53,20.45,30.85,52.38.17.33.61.41,1,0,0,0,0-.08.35-1.31a18.4,18.4,0,0,1,1-2.82,8,8,0,0,1,2.3-3.1,3.76,3.76,0,0,1,3.65-.49c1.71.58,3.69,2.12,6,4.76a78.26,78.26,0,0,1,8.54,13.06c7.94,14.54,14.16,25.1,18.87,32.12,4.38,6.52,7.46,10,9.58,10.94a2.12,2.12,0,0,0,2.76-.58,6.84,6.84,0,0,0,1-3.35,37.22,37.22,0,0,0,.1-4.93c0-1.54-.13-3-.33-6-.31-4.75-.4-6.71-.35-8.78.07-2.58.44-4.13,1.06-4.56.27-.18.64-.17,1.21.13a10.91,10.91,0,0,1,2.66,2.34c2.32,2.59,5.44,7.1,9.48,13.75.92,1.8,1.81,3.55,2.81,5.54l2.32,4.6c1.66,3.28,2.58,5.07,3.37,6.48a14.32,14.32,0,0,0,2.19,3.23c.75.71,1.53.74,2.13,0a8.21,8.21,0,0,0,1.18-2.84c.24-.85,1.27-4.79,1.32-5a103.68,103.68,0,0,1,5.39-15.68,8.16,8.16,0,0,1,1.9-2.94,1.49,1.49,0,0,1,1.53-.37c1.26.43,2.74,2.5,4.35,6a121.35,121.35,0,0,1,4.43,11.94c.4,1.22,1.74,5.33,1.82,5.58.7,2.15,1.23,3.71,1.73,5.12a30,30,0,0,0,3.15,7c.59.8,1.2,1.2,1.87,1.06s1.15-.77,1.55-1.86c.75-2,1.31-6,1.84-13,.09-.67.19-1.49.32-2.4.34-2.53.73-5.38,1.18-8.41,1.25-8.57,2.6-17,4-24.53,1.81-9.68,3.58-17.25,5.26-22.06.93-2.67,1.82-4.44,3.41-5.5.28.09.62.44,1,1.1.63,1.17,1.23,2.31,1.87,3.54l1.46,2.81a21,21,0,0,0,2.72,4.34.9.9,0,0,0,1.11,0c.39-.33.62-1,.94-2.3.15-.62.82-3.75,1-4.58.53-2.37,1.09-4.59,1.79-7a107,107,0,0,1,8.76-21.34,3.91,3.91,0,0,1,1.46,1.24,29.88,29.88,0,0,1,2,2.8c.5.75,2.39,3.69,2.31,3.57,1.18,1.83,2.07,3.12,2.94,4.24a12.34,12.34,0,0,0,3.63,3.46,2.94,2.94,0,0,0,3.81-.6c2.68-2.85,4.51-7.89,5.68-15A156.28,156.28,0,0,0,596,949.56c.09-4.43.09-8.14.05-15.58,0-5.65,0-7.77,0-10.35,0-3.37.14-5.93.34-7.9a11.65,11.65,0,0,1,.94-4.25c.16-.26.29-.35,1.17.12a99.52,99.52,0,0,1,10.42,12.63c1.72,2.39,3.32,4.7,5.67,8.18,3.5,5.18,3.57,5.28,4.64,6.77a24,24,0,0,0,3.28,4,1.61,1.61,0,0,0,1.43.53c.52-.14.76-.61.83-1.32.1-1,0-4.3-.44-11-.06-1-1-16.7-1.34-22.22-.48-8.33-.86-15.74-1.16-22.77-1-23.1-.91-39.79.53-48.81a19.38,19.38,0,0,1,1.53-5.6c.57-1.07,1.12-1.42,1.76-1.2.82.28,1.87,1.41,3.09,3.45a67.5,67.5,0,0,1,4.44,9.64,7.15,7.15,0,0,0,2.12,3.37c.92.6,1.84.25,2.54-.84,1.2-1.87,2.11-6.3,2.67-13,1.27-15.2.64-40.24-2.13-71.93-.56-6.42-1-12.35-1.25-18.37-.21-4.29-.27-5.87-.55-14.39-.21-6.29-.36-9.7-.63-13.43-.16-2.23-.36-4.41-.6-6.57C698.82,828.93,771.48,1011.39,768.88,1160.64Z"/><path d="M635.95,715.25c.27,3.73.42,7.14.63,13.43.28,8.52.34,10.1.55,14.39.29,6,.69,11.95,1.25,18.37,2.77,31.69,3.4,56.73,2.13,71.93-.56,6.72-1.47,11.16-2.67,13-.7,1.09-1.62,1.44-2.54.84a7.15,7.15,0,0,1-2.12-3.37,67.5,67.5,0,0,0-4.44-9.64c-1.22-2-2.27-3.18-3.09-3.45-.64-.21-1.19.13-1.76,1.2a19.38,19.38,0,0,0-1.53,5.6c-1.44,9-1.5,25.71-.53,48.81.3,7,.68,14.44,1.16,22.77.32,5.52,1.28,21.21,1.34,22.22.4,6.73.54,10,.44,11-.07.71-.31,1.18-.83,1.32a1.61,1.61,0,0,1-1.43-.53,24,24,0,0,1-3.28-4c-1.06-1.49-1.13-1.59-4.64-6.77-2.35-3.48-3.95-5.79-5.67-8.18a99.52,99.52,0,0,0-10.42-12.63c-.88-.47-1-.38-1.17-.12a11.65,11.65,0,0,0-.94,4.25c-.19,2-.29,4.52-.34,7.9,0,2.58,0,4.7,0,10.35,0,7.43,0,11.14-.05,15.58a156.28,156.28,0,0,1-1.64,21.87c-1.17,7.09-3,12.13-5.68,15a2.94,2.94,0,0,1-3.81.6,12.34,12.34,0,0,1-3.63-3.46c-.88-1.13-1.76-2.41-2.94-4.24.08.12-1.81-2.82-2.31-3.57a29.88,29.88,0,0,0-2-2.8,3.91,3.91,0,0,0-1.46-1.24A107,107,0,0,0,563.74,993c-.69,2.4-1.26,4.62-1.79,7-.19.83-.86,4-1,4.58-.32,1.34-.55,2-.94,2.3a.9.9,0,0,1-1.11,0,21,21,0,0,1-2.72-4.34l-1.46-2.81c-.64-1.23-1.24-2.36-1.87-3.54-.36-.66-.69-1-1-1.1-1.59,1.07-2.48,2.83-3.41,5.5-1.68,4.81-3.45,12.38-5.26,22.06-1.41,7.55-2.77,16-4,24.53-.44,3-.84,5.88-1.18,8.41-.12.92-.23,1.74-.32,2.4-.52,7-1.09,11-1.84,13-.4,1.09-.89,1.73-1.55,1.86s-1.28-.27-1.87-1.06a30,30,0,0,1-3.15-7c-.5-1.41-1-3-1.73-5.12-.08-.24-1.42-4.35-1.82-5.58a121.35,121.35,0,0,0-4.43-11.94c-1.61-3.54-3.08-5.61-4.35-6a1.49,1.49,0,0,0-1.53.37,8.16,8.16,0,0,0-1.9,2.94,103.68,103.68,0,0,0-5.39,15.68c-.06.22-1.08,4.16-1.32,5a8.21,8.21,0,0,1-1.18,2.84c-.6.72-1.38.69-2.13,0a14.32,14.32,0,0,1-2.19-3.23c-.79-1.41-1.72-3.2-3.37-6.48l-2.32-4.6c-1-2-1.89-3.75-2.81-5.54-4-6.65-7.15-11.16-9.48-13.75a10.91,10.91,0,0,0-2.66-2.34c-.57-.3-.94-.32-1.21-.13-.62.43-1,2-1.06,4.56-.05,2.07,0,4,.35,8.78.2,3,.28,4.47.33,6a37.22,37.22,0,0,1-.1,4.93,6.84,6.84,0,0,1-1,3.35,2.12,2.12,0,0,1-2.76.58c-2.12-.92-5.21-4.42-9.58-10.94-4.71-7-10.93-17.58-18.87-32.12A78.26,78.26,0,0,0,438.22,999c-2.26-2.64-4.24-4.18-6-4.76a3.76,3.76,0,0,0-3.65.49,8,8,0,0,0-2.3,3.1,18.4,18.4,0,0,0-1,2.82c-.33,1.24-.34,1.28-.35,1.31-.4.45-.85.38-1,0-16.32-31.92-26.09-48.25-30.85-52.38-.92-.8-1.57-1.07-1.95-.95s-.61.56-.8,1.43c-.36,1.62-.34,4,0,8.35.34,4.72.41,5.93.39,7.34a10.66,10.66,0,0,1-.2,2.2,1.75,1.75,0,0,1-.93,1.38c-1,.38-2-.55-3.61-2.8a104.79,104.79,0,0,1-6.25-10.94c-3-5.76-5.52-11.23-7.73-16.52-1.78-4.26-3.26-8.19-4.66-12.24-.67-2-2.37-7.1-2.6-7.78a8.62,8.62,0,0,0-1.33-2.91,15.93,15.93,0,0,0-1.85,3.65c-.94,2.31-2,3.71-3.12,4.21s-2.42.07-3.62-1.16c-2-2-4-6.35-6.41-12.95-1.62-4.53-3.23-9.67-5.52-17.45l-2.17-7.39c-.84-2.86-1.48-5-2.09-7-1.53-5-2.77-8.65-3.88-11.36-1.24-3-2.3-4.77-3.09-5.15a4.69,4.69,0,0,0-1.89,3.15c-1.2,4.77-2.55,7.25-4.22,7.58a2.74,2.74,0,0,1-2.55-1.18,14.78,14.78,0,0,1-2.16-3.65c-2.57-5.71-5.31-16.4-8.15-31-.53-2.75-1.06-5.6-1.59-8.53-32.46,152.32-99.83,479.14-54.78,484,53.5,5.82,129.66-142.3,254.36-141.22,124.92,1.08,174.1,166,204.52,164.94s50.48,10.78,53.72-175.07c2.6-149.24-70.07-331.71-133.54-452C635.59,710.84,635.79,713,635.95,715.25Z" style="fill:#fff"/><path d="M527.61,606a90.8,90.8,0,0,0-33.43-9.66c-22.61-2.27-47.77,2.38-69.59,12.29a151.09,151.09,0,0,0-29.33,17.49,108.63,108.63,0,0,0-23.64,24.38c-14.36,21-16.8,46.1-7.81,71.81a83.87,83.87,0,0,0,18.66,30.67,86.7,86.7,0,0,0,28.09,19.37c20.9,9.11,45.73,10.9,69.53,5.12a118.25,118.25,0,0,0,58.17-34c15.93-17.06,25.84-38.14,28-60.66a121.06,121.06,0,0,0-1.74-27.74,66.83,66.83,0,0,0-10.4-25.51A73.31,73.31,0,0,0,527.61,606Z"/><path d="M527.61,606a90.8,90.8,0,0,0-33.43-9.66c-22.61-2.27-47.77,2.38-69.59,12.29a151.09,151.09,0,0,0-29.33,17.49,108.63,108.63,0,0,0-23.64,24.38c-14.36,21-16.8,46.1-7.81,71.81a83.87,83.87,0,0,0,18.66,30.67,86.7,86.7,0,0,0,28.09,19.37c20.9,9.11,45.73,10.9,69.53,5.12a118.25,118.25,0,0,0,58.17-34c15.93-17.06,25.84-38.14,28-60.66a121.06,121.06,0,0,0-1.74-27.74,66.83,66.83,0,0,0-10.4-25.51A73.31,73.31,0,0,0,527.61,606Z" style="fill:url(#radial-gradient)"/><path d="M327.84,434.65c.84,35.2.6,72.59-.77,109.06-1.18,31.56-3.18,61.88-6,89.86A205.88,205.88,0,0,1,372,588c24.11-15.32,51.3-25.93,80.17-32.1a282.31,282.31,0,0,1,73-5.9,213.37,213.37,0,0,1,23.66,2.52c-12.33-15.44-30.18-36.24-51.89-60.47-28.44-31.75-61.83-67.53-93.09-99.75-32.69-33.7-60.94-61.35-79.79-77.94q-3.74-3.29-6.93-6a338,338,0,0,1,5.54,37C325.24,369.83,327,400.72,327.84,434.65Z" style="fill:#ed671c"/><path d="M1400.27,381.86h-14.8c-8,0-13.77,4.88-15.16,12.74l-44.38,215.88-57.66-216.69c-1.53-7.37-7.28-11.93-15.09-11.93h-16.54c-7.56,0-13.15,4.57-14.66,12l-57.28,216.67-44.76-215.9c-1.4-7.86-7-12.72-14.72-12.72h-14.36c-6.12,0-9.49,2.68-11.24,4.92a12.94,12.94,0,0,0-2.12,11.53l59.68,269.61c1.88,7.54,7.65,12.22,15,12.22H1174c7.13,0,12.73-4.68,14.58-12.1l56.76-214.85,56.35,214.73c1.88,7.54,7.65,12.22,15,12.22h22.19c7.68,0,13.3-4.84,14.71-12.66l59.52-268.93c1.45-5.8-.31-9.66-2-11.88S1406.12,381.86,1400.27,381.86Z"/><path d="M1586.19,560.43A63,63,0,0,0,1614.86,540c9.55-12.06,14.4-27.46,14.4-45.77V452.89c0-21.59-6.47-39-19.24-51.79s-30-19.24-51.35-19.24h-99.22c-8,0-13.58,5.94-13.58,14.45V665.68c0,8.51,5.58,14.45,13.58,14.45h12.62c8.25,0,14-5.94,14-14.45V565.25h58l48.79,104.19a17,17,0,0,0,16.27,10.69h13.49c6.9,0,10.11-3.54,11.42-5.64,1.6-2.59,2.88-6.94,0-12.75Zm-29.69-32.35h-70.41V419.9h70.41c10.82,0,18.75,2.77,24.24,8.48s8.31,14.12,8.31,25.37v40.91c0,11.22-2.7,19.43-8.24,25.09S1567.35,528.08,1556.5,528.08Z"/><path d="M1797.58,381.86h-53.53c-21.33,0-38.54,6.49-51.17,19.28s-19,30.17-19,51.74V609.11c0,21.57,6.38,39,19,51.74s29.84,19.28,51.17,19.28h53.53c21.34,0,38.56-6.49,51.18-19.28s19-30.17,19-51.74V452.89c0-21.57-6.38-39-19-51.74S1818.91,381.86,1797.58,381.86Zm29.94,226.38c0,11.39-2.72,20-8.09,25.59s-13.2,8.26-24,8.26H1745.8c-10.75,0-18.5-2.73-23.68-8.35-5.38-5.82-8-14.17-8-25.5V453.76c0-11.33,2.62-19.68,8-25.51,5.18-5.61,12.93-8.34,23.68-8.34h49.61c10.82,0,18.68,2.7,24,8.26s8.09,14.2,8.09,25.59Z"/><path d="M2039.54,381.86H1984.7c-21.33,0-38.55,6.49-51.18,19.28s-19,30.17-19,51.74V609.11c0,21.57,6.38,39,19,51.74s29.84,19.28,51.18,19.28h54.83c21.34,0,38.55-6.49,51.17-19.28s19-30.17,19-51.74V587.79c0-8.51-5.76-14.45-14-14.45h-12.18c-8.25,0-14,5.94-14,14.45v20.45c0,11.39-2.72,20-8.09,25.59s-13.2,8.26-24,8.26h-50.92c-10.75,0-18.5-2.73-23.68-8.34-5.38-5.83-8-14.17-8-25.51V453.76c0-11.17,2.69-19.75,8-25.5s12.93-8.35,23.68-8.35h50.92c10.82,0,18.68,2.7,24,8.26s8.09,14.2,8.09,25.59v20.45c0,8.51,5.76,14.45,14,14.45h12.18c8.25,0,14-5.94,14-14.45V452.89c0-21.57-6.38-39-19-51.74S2060.86,381.86,2039.54,381.86Z"/><path d="M2310.21,641.22H2198.46V500.05L2237.6,478c8.36-4.55,9.6-11.39,9.6-15.07V451.58c0-6.79-3.55-9.91-5.66-11.17s-6.63-2.89-12.9.52l-30.18,17V396.31c0-8.51-5.76-14.45-14-14.45h-12.62c-8.25,0-14,5.94-14,14.45V481l-26.52,15.1c-8.35,4.55-9.6,11.4-9.6,15.07v11.31c0,6.37,3.34,9.47,5.32,10.75,2.48,1.59,6.66,2.93,12.52.26l18.28-10.36V665.68c0,8.51,5.76,14.45,14,14.45h138.38c8.25,0,14-5.76,14-14V655.24C2324.23,647,2318.46,641.22,2310.21,641.22Z"/><path d="M2533.74,668.33c2,7.4,7.4,11.81,14.51,11.81h13.93a12.28,12.28,0,0,0,10-4.59c1.73-2.21,3.47-6.1,2-12.1l-86.8-270.06c-2.41-7.22-8-11.52-14.85-11.52h-20.45c-7.28,0-13,4.54-15,11.87l-86.49,269c-2,6-.42,10.07,1.26,12.41,1.34,1.85,4.48,5,10.53,5h13.49c3.18,0,10.94-1.12,14.41-11.5l21.38-63.35h100.76Zm-110-101.09,38.42-124,38.76,124Z"/><path d="M2906,381.86h-14.8c-8,0-13.77,4.88-15.16,12.74l-44.38,215.88L2774,393.79c-1.53-7.37-7.28-11.93-15.09-11.93h-16.54c-7.56,0-13.15,4.57-14.66,12L2670.4,610.49l-44.76-215.9c-1.4-7.86-7-12.72-14.72-12.72h-14.36c-6.12,0-9.49,2.68-11.24,4.92a12.94,12.94,0,0,0-2.12,11.53l59.68,269.61c1.88,7.54,7.65,12.22,15,12.22h21.76c7.13,0,12.73-4.68,14.58-12.1L2751,453.19l56.35,214.73c1.88,7.54,7.65,12.22,15,12.22h22.19c7.68,0,13.3-4.84,14.71-12.66l59.52-268.93c1.45-5.8-.31-9.66-2-11.88S2911.81,381.86,2906,381.86Z"/><path d="M1247.25,930.44h-12.18c-8.25,0-14,5.94-14,14.45v211.93c0,11.39-2.72,20-8.09,25.59s-13.2,8.26-24,8.26h-39.6c-10.78,0-18.55-2.68-23.74-8.19s-7.94-14.23-7.94-25.66v-35.25c0-8.25-5.76-14-14-14H1091c-8.25,0-14,5.76-14,14v36.12c0,21.6,6.48,39,19.24,51.78s30,19.24,51.35,19.24h43.52c21.34,0,38.55-6.49,51.17-19.28s19-30.17,19-51.74V944.46C1261.27,936.21,1255.51,930.44,1247.25,930.44Z"/><path d="M1427.9,942c-2.41-7.22-8-11.52-14.85-11.52H1392.6c-7.28,0-13,4.54-15,11.87l-86.49,269c-2,6-.42,10.07,1.26,12.41,1.34,1.85,4.48,5,10.53,5h13.49c3.18,0,10.94-1.12,14.41-11.5l21.38-63.35H1453l21.28,63c2,7.4,7.4,11.81,14.51,11.81h13.93a12.28,12.28,0,0,0,10-4.59c1.73-2.21,3.47-6.1,2-12.1Zm-63.68,173.86,38.42-124,38.76,124Z"/><path d="M1720.28,930.44h-13.49c-7.17,0-12.6,4.48-14.56,12l-64.64,220.24-64.64-220.25c-1.93-7.41-7.5-12-14.56-12H1534.9c-6.28,0-9.63,2.82-11.33,5.18s-3.26,6.29-1.39,12L1603,1216.74c2,7.51,7.39,12,14.55,12h20c7.05,0,12.61-4.58,14.55-12L1733,947.55l.12-.41c1.45-5.8-.31-9.66-2-11.88S1726.13,930.44,1720.28,930.44Z"/><path d="M1877.43,942c-2.41-7.22-8-11.52-14.85-11.52h-20.45c-7.28,0-13,4.54-15,11.87l-86.49,269c-2,6-.42,10.07,1.26,12.41,1.34,1.85,4.48,5,10.53,5H1766c3.18,0,10.94-1.12,14.41-11.5l21.38-63.35h100.76l21.28,63c2,7.4,7.4,11.81,14.51,11.81h13.93a12.28,12.28,0,0,0,10-4.59c1.73-2.21,3.47-6.1,2-12.1Zm-63.68,173.86,38.42-124,38.76,124Z"/><path d="M2285.13,930.44h-12.19c-8.25,0-14,5.94-14,14.45v211.93c0,11.39-2.72,20-8.08,25.59s-13.21,8.27-24,8.27H2182c-10.75,0-18.5-2.73-23.68-8.34-5.38-5.83-8-14.17-8-25.51V944.89c0-8.51-5.76-14.45-14-14.45h-12.62c-8,0-13.58,5.94-13.58,14.45v212.8c0,21.57,6.38,39,19,51.74s29.84,19.28,51.18,19.28H2229c21.34,0,38.55-6.49,51.17-19.28s19-30.17,19-51.74V944.46C2299.15,936.21,2293.39,930.44,2285.13,930.44Z"/><path d="M2482.56,1066.93c-15.12-3.81-30.29-7.21-45.09-10.12-30.56-6-46.06-16.53-46.06-31.41v-21.76c0-24.64,9.73-35.16,32.55-35.16h44.82c23.12,0,33,10.25,33,34.29v10.88c0,8.25,5.76,14,14,14h12.62c8.25,0,14-5.76,14-14v-12.19c0-21.59-6.47-39-19.24-51.79s-30-19.24-51.35-19.24h-50.48c-21.31,0-38.58,6.47-51.35,19.24s-19.24,30.19-19.24,51.78v23.93c0,18.35,6.32,33.26,18.76,44.32,11.55,10.27,25.72,17.42,42.12,21.24,15.15,3.53,30.21,6.91,44.75,10,13.53,2.92,25.16,7.71,34.54,14.22,8,5.55,11.7,12.68,11.7,22.45V1156c0,24.34-9.86,34.72-33,34.72h-45.26c-23.12,0-33-10.25-33-34.29V1142c0-8.25-5.76-14-14-14h-12.62c-8.25,0-14,5.76-14,14v15.67c0,21.6,6.47,39,19.24,51.78s30,19.24,51.35,19.24h51.35c21.31,0,38.58-6.47,51.35-19.24s19.24-30.19,19.24-51.78v-21.32c0-19.38-6.24-35.11-18.56-46.75A94,94,0,0,0,2482.56,1066.93Z"/><path d="M2745.11,930.44H2610.64c-8,0-13.58,5.94-13.58,14.45v269.37c0,8.51,5.58,14.45,13.58,14.45h134.47c8.51,0,14.45-5.76,14.45-14v-10c0-8.25-5.94-14-14.45-14H2637.28V1096h95.65c8.25,0,14-5.76,14-14v-10c0-8.25-5.76-14-14-14h-95.65V968.49h107.83c8.51,0,14.45-5.76,14.45-14v-10C2759.56,936.21,2753.62,930.44,2745.11,930.44Z"/><path d="M2946.69,1109a63,63,0,0,0,28.68-20.43c9.55-12.07,14.4-27.47,14.4-45.77v-41.34c0-21.59-6.47-39-19.24-51.79s-30-19.24-51.35-19.24H2820c-8,0-13.58,5.94-13.58,14.45v269.37c0,8.51,5.59,14.45,13.58,14.45h12.62c8.25,0,14-5.94,14-14.45V1113.83h58L2953.39,1218a17,17,0,0,0,16.26,10.7h13.49c6.9,0,10.11-3.54,11.42-5.64,1.6-2.59,2.88-6.94,0-12.75ZM2917,1076.66h-70.41V968.49H2917c10.82,0,18.75,2.77,24.24,8.48s8.31,14.12,8.31,25.37v40.91c0,11.22-2.7,19.43-8.24,25.09S2927.85,1076.66,2917,1076.66Z"/><path d="M3268.18,930.44h-47.44c-21.33,0-38.54,6.49-51.17,19.28s-19,30.17-19,51.74v156.23c0,21.57,6.38,39,19,51.74s29.84,19.28,51.17,19.28h47.44c21.31,0,38.59-6.47,51.35-19.24s19.24-30.19,19.24-51.78v-73.11c0-10.89-6.87-17.93-17.5-17.93h-67.89c-8.25,0-14,5.76-14,14v10c0,8.25,5.76,14,14,14h44.73v52.13c0,11.43-2.67,20.06-7.94,25.66s-13,8.19-23.74,8.19h-44c-10.75,0-18.5-2.73-23.68-8.35-5.38-5.82-8-14.17-8-25.5V1002.34c0-11.33,2.62-19.68,8-25.51,5.18-5.61,12.93-8.34,23.68-8.34h44c10.79,0,18.55,2.68,23.74,8.19s7.94,14.23,7.94,25.66V1021c0,8.51,5.76,14.45,14,14.45h12.62c8.25,0,14-5.94,14-14.45v-19.58c0-21.59-6.47-39-19.24-51.79S3289.48,930.44,3268.18,930.44Z"/><path d="M3529.81,1109a63,63,0,0,0,28.68-20.43c9.55-12.07,14.4-27.47,14.4-45.77v-41.34c0-21.59-6.47-39-19.24-51.79s-30-19.24-51.35-19.24h-99.22c-8,0-13.58,5.94-13.58,14.45v269.37c0,8.51,5.59,14.45,13.58,14.45h12.62c8.25,0,14-5.94,14-14.45V1113.83h58L3536.51,1218a17,17,0,0,0,16.26,10.7h13.49c6.9,0,10.11-3.54,11.42-5.64,1.6-2.59,2.88-6.94,0-12.75Zm-29.69-32.35h-70.41V968.49h70.41c10.82,0,18.75,2.77,24.24,8.48s8.31,14.12,8.31,25.37v40.91c0,11.22-2.7,19.43-8.24,25.09S3511,1076.66,3500.12,1076.66Z"/><path d="M3741.21,930.44h-53.53c-21.33,0-38.54,6.49-51.17,19.28s-19,30.17-19,51.74v156.23c0,21.57,6.38,39,19,51.74s29.84,19.28,51.17,19.28h53.53c21.34,0,38.56-6.49,51.18-19.28s19-30.17,19-51.74V1001.47c0-21.57-6.38-39-19-51.74S3762.54,930.44,3741.21,930.44Zm29.94,226.38c0,11.39-2.72,20-8.09,25.59s-13.21,8.27-24,8.27h-49.61c-10.75,0-18.5-2.73-23.68-8.35-5.38-5.83-8-14.17-8-25.5V1002.34c0-11.17,2.69-19.75,8-25.51s12.92-8.34,23.68-8.34H3739c10.82,0,18.68,2.7,24,8.26s8.09,14.2,8.09,25.59Z"/><path d="M4035.38,930.44H4023.2c-8.25,0-14,5.94-14,14.45v211.93c0,11.39-2.72,20-8.08,25.59s-13.21,8.27-24,8.27h-44.82c-10.75,0-18.5-2.73-23.68-8.35-5.38-5.82-8-14.17-8-25.5V944.89c0-8.51-5.76-14.45-14-14.45h-12.62c-8,0-13.58,5.94-13.58,14.45v212.8c0,21.57,6.38,39,19,51.74s29.84,19.28,51.18,19.28h48.74c21.34,0,38.55-6.49,51.17-19.28s19-30.17,19-51.74V944.46C4049.4,936.21,4043.64,930.44,4035.38,930.44Z"/><path d="M4267.76,949.68c-12.77-12.76-30-19.24-51.35-19.24H4116.32c-8,0-13.58,5.94-13.58,14.45v269.37c0,8.51,5.58,14.45,13.58,14.45h12.62c8.25,0,14-5.94,14-14.45v-90.86h73.45c21.31,0,38.58-6.48,51.35-19.24S4287,1074,4287,1052.38v-50.91C4287,979.88,4280.53,962.46,4267.76,949.68Zm-21.41,101.83c0,11.14-2.67,19.63-7.94,25.23s-13,8.19-23.74,8.19H4143V968.49h71.71c10.79,0,18.55,2.68,23.74,8.19s7.94,14.23,7.94,25.66Z"/></svg>